<?xml version="1.0" standalone="no"?>
<!DOCTYPE svg PUBLIC "-//W3C//DTD SVG 20010904//EN"
 "http://www.w3.org/TR/2001/REC-SVG-20010904/DTD/svg10.dtd">
<svg version="1.0" xmlns="http://www.w3.org/2000/svg"
 width="512.000000pt" height="512.000000pt" viewBox="0 0 512.000000 512.000000"
 preserveAspectRatio="xMidYMid meet">

<g transform="translate(0.000000,512.000000) scale(0.100000,-0.100000)"
fill="#000000" stroke="none">
<path d="M2548 4414 c-5 -4 -8 -306 -8 -671 l0 -663 62 0 c51 0 69 5 109 30
91 59 173 163 225 288 16 37 37 74 46 82 41 36 87 311 57 346 -10 13 -13 40
-11 103 4 93 -15 206 -45 268 -34 73 -142 156 -247 193 -64 22 -177 36 -188
24z"/>
<path d="M2866 3047 c-45 -105 -219 -483 -226 -490 -4 -5 -11 32 -14 82 -7 84
-6 93 15 122 19 27 21 39 15 92 -3 34 -10 65 -15 70 -4 4 -26 7 -47 5 l-39 -3
-3 -398 -2 -398 432 3 c484 3 475 2 551 76 86 83 95 136 56 350 -33 183 -44
215 -85 253 -27 25 -491 215 -501 206 -2 -2 0 -36 3 -75 6 -61 10 -72 31 -83
37 -20 74 -90 80 -154 6 -54 5 -55 -19 -55 -23 0 -27 6 -38 62 -12 62 -51 118
-83 118 -35 0 -66 -40 -78 -100 -11 -57 -13 -60 -40 -60 -29 0 -29 1 -23 43 9
67 50 144 84 159 28 12 30 16 30 73 0 81 -6 97 -41 117 l-29 17 -14 -32z m17
-471 c7 -79 38 -176 63 -197 11 -9 20 -10 32 -3 24 15 69 111 88 187 10 44 21
67 31 67 11 0 12 -8 7 -37 -17 -96 -45 -162 -88 -210 l-44 -48 -108 -6 c-60
-3 -115 -4 -121 -2 -19 7 -16 53 3 60 9 3 31 -1 48 -10 35 -18 116 -33 116
-21 0 4 -12 37 -26 73 -32 80 -46 221 -22 221 11 0 17 -18 21 -74z m301 -238
c8 -13 7 -21 -1 -29 -17 -17 -197 9 -182 27 6 7 24 10 48 7 21 -3 47 0 57 6
26 15 65 10 78 -11z"/>
<path d="M1940 1804 l0 -216 -35 31 c-101 88 -265 54 -328 -70 -53 -103 -45
-214 22 -307 63 -86 206 -107 298 -43 l43 31 0 -30 c0 -28 2 -30 40 -30 l40 0
0 425 0 425 -40 0 -40 0 0 -216z m-73 -234 c61 -37 90 -116 72 -199 -19 -85
-74 -132 -154 -133 -157 -3 -219 239 -85 330 43 29 122 30 167 2z"/>
<path d="M3250 1745 c0 -84 0 -85 -25 -85 -22 0 -25 -4 -25 -40 0 -36 3 -40
25 -40 l25 0 0 -205 0 -205 40 0 40 0 0 205 0 205 45 0 45 0 0 40 0 40 -45 0
-45 0 0 85 0 85 -40 0 -40 0 0 -85z"/>
<path d="M2320 1661 c-85 -26 -151 -93 -176 -177 -45 -154 61 -308 221 -322
237 -20 367 264 199 433 -63 63 -164 90 -244 66z m147 -88 c81 -38 116 -157
71 -242 -27 -52 -60 -79 -111 -90 -77 -18 -155 19 -193 91 -23 44 -18 139 9
179 50 75 143 101 224 62z"/>
<path d="M2880 1655 c-166 -53 -226 -272 -112 -405 53 -62 103 -84 192 -85 55
0 85 5 115 20 38 19 40 22 43 73 2 31 -1 52 -7 52 -6 0 -11 -4 -11 -10 0 -5
-20 -21 -45 -36 -132 -77 -280 20 -262 172 10 92 80 154 172 154 52 0 77 -10
118 -48 l27 -26 0 55 c0 54 -1 56 -37 73 -51 24 -137 29 -193 11z"/>
<path d="M3618 1655 c-63 -21 -131 -89 -153 -156 -59 -178 76 -352 260 -337
159 14 265 168 221 322 -41 139 -188 216 -328 171z m173 -88 c56 -37 79 -81
79 -149 0 -66 -14 -99 -58 -142 -52 -49 -151 -53 -211 -9 -14 11 -36 39 -49
64 -44 84 -10 203 69 242 50 25 129 22 170 -6z"/>
<path d="M4220 1663 c-8 -3 -27 -17 -42 -31 l-28 -26 0 27 c0 25 -3 27 -40 27
l-40 0 0 -245 0 -245 40 0 40 0 0 158 c0 86 5 174 11 195 13 50 47 71 99 63
37 -6 41 -4 56 25 10 20 12 35 6 41 -12 12 -81 20 -102 11z"/>
</g>
</svg>
